<svg width="130" height="204" viewBox="0 0 130 204" fill="none" xmlns="http://www.w3.org/2000/svg">
<circle cx="65" cy="135.688" r="65" fill="black" fill-opacity="0.9"/>
<path d="M72.1075 147.047C82.8175 157.337 90.4125 165.072 94.8925 170.253C97.2025 172.842 98.3575 175.047 98.3575 176.867C98.3575 178.617 96.9575 180.717 94.1575 183.167C91.3575 185.548 89.0475 186.738 87.2275 186.738C85.4775 186.738 83.3425 185.267 80.8225 182.327L57.7225 155.972V176.447C57.7225 178.127 57.6525 179.352 57.5125 180.122C57.4425 180.892 57.1275 181.802 56.5675 182.852C55.5875 184.742 52.8575 185.688 48.3775 185.688C43.4775 185.688 40.6075 184.357 39.7675 181.697C39.3475 180.577 39.1375 178.792 39.1375 176.342V117.962C39.1375 116.352 39.1725 115.162 39.2425 114.392C39.3825 113.552 39.7325 112.607 40.2925 111.557C41.2725 109.667 44.0025 108.722 48.4825 108.722C53.3825 108.722 56.2875 110.017 57.1975 112.607C57.5475 113.797 57.7225 115.617 57.7225 118.067V138.122C67.2425 127.412 74.9425 118.627 80.8225 111.767C83.2725 108.897 85.4075 107.462 87.2275 107.462C89.0475 107.462 91.3575 108.687 94.1575 111.137C96.9575 113.517 98.3575 115.617 98.3575 117.437C98.3575 119.187 97.3075 121.287 95.2075 123.737C91.1475 128.427 84.8475 134.867 76.3075 143.057L72.1075 147.047Z" fill="#FDF9EE"/>
<path d="M56.225 84.675C57.415 85.865 58.01 88.315 58.01 92.025V92.445C58.01 94.125 57.94 95.385 57.8 96.225C57.73 96.995 57.38 97.94 56.75 99.06C55.7 101.09 53.04 102.105 48.77 102.105C44.57 102.105 41.77 101.44 40.37 100.11C39.04 98.78 38.375 96.26 38.375 92.55V92.13C38.375 90.52 38.41 89.295 38.48 88.455C38.62 87.615 38.97 86.67 39.53 85.62C40.58 83.52 43.205 82.47 47.405 82.47C51.675 82.47 54.615 83.205 56.225 84.675Z" fill="#FDF9EE"/>
</svg>
